<?xml version="1.0" encoding="UTF-8" standalone="no"?>
<svg
   xmlns:dc="http://purl.org/dc/elements/1.1/"
   xmlns:cc="http://creativecommons.org/ns#"
   xmlns:rdf="http://www.w3.org/1999/02/22-rdf-syntax-ns#"
   xmlns:svg="http://www.w3.org/2000/svg"
   xmlns="http://www.w3.org/2000/svg"
   xmlns:sodipodi="http://sodipodi.sourceforge.net/DTD/sodipodi-0.dtd"
   xmlns:inkscape="http://www.inkscape.org/namespaces/inkscape"
   viewBox="0 0 557.8125 165.3625"
   height="165.3625"
   width="557.8125"
   xml:space="preserve"
   version="1.1"
   id="svg4155"
   sodipodi:docname="DH Logo White.svg"
   inkscape:version="1.0.1 (3bc2e813f5, 2020-09-07)"><sodipodi:namedview
     pagecolor="#ffffff"
     bordercolor="#666666"
     borderopacity="1"
     objecttolerance="10"
     gridtolerance="10"
     guidetolerance="10"
     inkscape:pageopacity="0"
     inkscape:pageshadow="2"
     inkscape:window-width="1920"
     inkscape:window-height="1001"
     id="namedview923"
     showgrid="false"
     inkscape:zoom="2.1781513"
     inkscape:cx="278.90625"
     inkscape:cy="82.681252"
     inkscape:window-x="-9"
     inkscape:window-y="1341"
     inkscape:window-maximized="1"
     inkscape:current-layer="svg4155"
     inkscape:document-rotation="0" /><metadata
     id="metadata4161"><rdf:RDF><cc:Work
         rdf:about=""><dc:format>image/svg+xml</dc:format><dc:type
           rdf:resource="http://purl.org/dc/dcmitype/StillImage" /><dc:title></dc:title></cc:Work></rdf:RDF></metadata><defs
     id="defs4159" /><g
     transform="matrix(1.25,0,0,-1.25,0,165.3625)"
     id="g4163"><g
       transform="scale(0.1,0.1)"
       id="g4165"><path
         id="path4167"
         style="fill:#ffffff;fill-opacity:1;fill-rule:nonzero;stroke:none"
         d="M 2141.99,882.441 2005.9,588.32 l 87.05,0 14.9,33.711 101.99,0 14.9,-33.711 87.06,0 -136.1,294.121 -33.71,0 z m -8.61,-195.687 23.5,63.504 3.92,0 23.55,-63.504 -50.97,0" /><path
         id="path4169"
         style="fill:#ffffff;fill-opacity:1;fill-rule:nonzero;stroke:none"
         d="m 1251.03,1322.87 -1251.03,0 208.359,-440.62 88.707,0 74.485,-160.395 74.527,160.395 89.391,0 -134.121,-294.086 -53.918,0 L 625.535,0 908.523,598.504 c -22.859,-10.984 -48.601,-16.766 -75.632,-16.766 -83.106,0 -157.559,66.235 -157.559,153.649 0,87.375 74.453,153.609 157.559,153.609 56.035,0 106.621,-24.66 137.168,-69.351 l -66.633,-40.786 c -14.891,20.395 -36.043,34.106 -66.629,34.106 -40.742,0 -76.027,-37.231 -76.027,-77.578 0,-40.387 35.285,-77.614 76.027,-77.614 30.586,0 51.738,13.715 66.629,34.106 l 38.195,-23.375 67.029,141.73 57.43,0 0,-221.851 79.95,0 0,221.851 80.35,0 0,72.121 -183.63,0 208.28,440.515 z m -612.925,-734.487 -79.953,0 0,293.933 79.953,0 0,-293.933" /><path
         id="path4171"
         style="fill:#ffffff;fill-opacity:1;fill-rule:nonzero;stroke:none"
         d="m 1402.75,889.02 c -87.42,0 -163.05,-66.239 -163.05,-153.649 0,-87.418 75.63,-153.648 163.05,-153.648 87.42,0 163.05,66.23 163.05,153.648 0,87.41 -75.63,153.649 -163.05,153.649 m 0,-231.266 c -42.72,0 -77.61,34.894 -77.61,77.617 0,42.719 34.89,77.609 77.61,77.609 42.72,0 77.61,-34.89 77.61,-77.609 0,-42.723 -34.89,-77.617 -77.61,-77.617" /><path
         id="path4173"
         style="fill:#ffffff;fill-opacity:1;fill-rule:nonzero;stroke:none"
         d="m 1847.59,775.352 c 0,61.527 -49.01,107.011 -110.93,107.011 l -133.65,0 0,-293.976 79.94,0 0,79.949 37.66,0 36.44,-79.949 89.75,0 -49.76,98.797 c 28.21,19.562 50.55,48.566 50.55,88.168 m -113.67,-34.899 -50.97,0 0,69.789 50.97,0 c 18.03,0 29.81,-20.39 29.81,-34.89 0,-14.508 -11.78,-34.899 -29.81,-34.899" /><path
         id="path4175"
         style="fill:#ffffff;fill-opacity:1;fill-rule:nonzero;stroke:none"
         d="m 1886.79,588.402 79.9414,0 0,293.941 -79.9414,0 0,-293.941 z" /><path
         id="path4177"
         style="fill:#ffffff;fill-opacity:1;fill-rule:nonzero;stroke:none"
         d="m 1057.75,364.988 27.97,11.129 c 4.45,-13.14 15.19,-19.023 29.58,-19.023 15.79,0 24.12,7.5 24.12,17.23 0,7.684 -3.66,12.352 -15.79,14.789 l -26.79,5.457 c -16.19,3.231 -35.64,12.348 -35.64,38.914 0,24.301 19.85,41.321 51.66,41.321 23.3,0 41.96,-10.735 50.25,-28.754 l -26.34,-8.723 c -4.46,8.508 -13.75,13.785 -24.52,13.785 -13.75,0 -22.08,-7.718 -22.08,-16.836 0,-6.894 3.05,-11.523 13.57,-13.75 l 27.18,-5.89 c 22.08,-4.844 35.64,-17.84 35.64,-38.914 0,-26.348 -21.68,-42.754 -53.89,-42.754 -25.34,0 -47.81,10.554 -54.92,32.019" /><path
         id="path4179"
         style="fill:#ffffff;fill-opacity:1;fill-rule:nonzero;stroke:none"
         d="m 1260.38,340.473 c -10.55,-5.672 -17.84,-7.504 -26.35,-7.504 -23.9,0 -39.69,12.562 -39.69,40.312 l 0,41.965 -21.69,0 0,21.863 21.69,0 0,30.625 26.73,0 0,-30.625 33.03,0 0,-21.863 -33.03,0 0,-39.914 c 0,-12.176 5.89,-17.453 14.8,-17.453 4.67,0 11.55,2.047 16.8,4.883 l 7.71,-22.289" /><path
         id="path4181"
         style="fill:#ffffff;fill-opacity:1;fill-rule:nonzero;stroke:none"
         d="m 1372.42,437.121 0,-101.125 -26.74,0 0,7.934 c -8.5,-6.895 -19.68,-10.953 -33.43,-10.953 -25.73,0 -49.64,21.683 -49.64,53.492 0,31.804 23.91,53.707 49.64,53.707 13.75,0 24.93,-4.059 33.43,-11.168 l 0,8.113 26.74,0 z m -26.74,-50.652 c 0,18.633 -14.39,30.406 -28.79,30.406 -16.19,0 -28.37,-11.773 -28.37,-30.406 0,-18.633 12.18,-30.192 28.37,-30.192 14.4,0 28.79,11.559 28.79,30.192" /><path
         id="path4183"
         style="fill:#ffffff;fill-opacity:1;fill-rule:nonzero;stroke:none"
         d="m 1470.3,340.473 c -10.55,-5.672 -17.84,-7.504 -26.35,-7.504 -23.91,0 -39.7,12.562 -39.7,40.312 l 0,41.965 -21.68,0 0,21.863 21.68,0 0,30.625 26.74,0 0,-30.625 33.02,0 0,-21.863 -33.02,0 0,-39.914 c 0,-12.176 5.88,-17.453 14.79,-17.453 4.67,0 11.56,2.047 16.8,4.883 l 7.72,-22.289" /><path
         id="path4185"
         style="fill:#ffffff;fill-opacity:1;fill-rule:nonzero;stroke:none"
         d="m 1576.06,379.379 -77,0 c 2.66,-14.609 13.18,-23.516 26.35,-23.516 8.11,0 17.01,1.438 24.12,10.125 l 21.25,-10.519 c -9.73,-15.188 -25.52,-22.504 -45.37,-22.504 -29.58,0 -52.88,21.68 -52.88,53.484 0,31.84 23.3,53.707 52.26,53.707 26.97,0 50.27,-20.859 51.27,-51.66 l 0,-9.117 z m -76.18,18.848 48.83,0 c -3.63,12.961 -13.18,18.628 -23.92,18.628 -10.11,0 -21.68,-6.066 -24.91,-18.628" /><path
         id="path4187"
         style="fill:#ffffff;fill-opacity:1;fill-rule:nonzero;stroke:none"
         d="m 1195.95,214.84 c 0,-40.309 -28.76,-70.508 -68.89,-70.508 -40.54,0 -72.12,30.988 -72.12,70.898 0,39.739 32.2,70.942 72.12,70.942 21.29,0 40.31,-8.332 52.87,-23.301 l -22.68,-15.621 c -7.68,8.91 -18.45,12.961 -30.19,12.961 -24.31,0 -44.16,-19.231 -44.16,-44.981 0,-25.73 19.64,-45.191 44.98,-45.191 20.64,0 36.04,12.172 40.71,31.41 l -35.47,0 0,25.129 62.22,0 c 0.39,-4.668 0.61,-8.508 0.61,-11.738" /><path
         id="path4189"
         style="fill:#ffffff;fill-opacity:1;fill-rule:nonzero;stroke:none"
         d="m 1315.7,197.809 c 0,-31.809 -24.91,-53.09 -54.49,-53.09 -30.2,0 -55.14,21.281 -55.14,53.09 0,31.812 24.94,53.101 55.14,53.101 29.58,0 54.49,-21.289 54.49,-53.101 m -25.95,0 c 0,18.851 -14.58,30.191 -28.54,30.191 -14.61,0 -29.19,-11.34 -29.19,-30.191 0,-18.848 14.58,-30.188 29.19,-30.188 13.96,0 28.54,11.34 28.54,30.188" /><path
         id="path4191"
         style="fill:#ffffff;fill-opacity:1;fill-rule:nonzero;stroke:none"
         d="m 1432.41,248.68 -42.15,-101.309 -28.36,0 -42.14,101.309 28.75,0 27.57,-68.68 27.58,68.68 28.75,0" /><path
         id="path4193"
         style="fill:#ffffff;fill-opacity:1;fill-rule:nonzero;stroke:none"
         d="m 1540.01,190.719 -77,0 c 2.65,-14.61 13.17,-23.508 26.34,-23.508 8.12,0 17.03,1.437 24.14,10.117 l 21.25,-10.508 c -9.73,-15.191 -25.53,-22.511 -45.39,-22.511 -29.58,0 -52.87,21.679 -52.87,53.492 0,31.84 23.29,53.699 52.27,53.699 26.96,0 50.25,-20.859 51.26,-51.66 l 0,-9.121 z m -76.17,18.851 48.82,0 c -3.63,12.961 -13.18,18.629 -23.91,18.629 -10.13,0 -21.68,-6.07 -24.91,-18.629" /><path
         id="path4195"
         style="fill:#ffffff;fill-opacity:1;fill-rule:nonzero;stroke:none"
         d="m 1626.34,249.078 -1.44,-25.738 -5.86,0 c -24.72,0 -36.07,-15.192 -36.07,-43.371 l 0,-32.59 -26.75,0 0,101.09 26.75,0 0,-18.449 c 8.11,11.769 19.85,19.89 36.26,19.89 2.65,0 4.67,0 7.11,-0.832" /><path
         id="path4197"
         style="fill:#ffffff;fill-opacity:1;fill-rule:nonzero;stroke:none"
         d="m 1738.18,208.961 0,-61.602 -26.74,0 0,55.93 c 0,14.18 -8.11,23.691 -20.46,23.691 -15.19,0 -25.13,-10.121 -25.13,-34.859 l 0,-44.762 -26.74,0 0,101.129 26.74,0 0,-9.129 c 7.9,7.903 18.46,12.141 31.81,12.141 24.3,0 40.52,-17.41 40.52,-42.539" /><path
         id="path4199"
         style="fill:#ffffff;fill-opacity:1;fill-rule:nonzero;stroke:none"
         d="m 1926.22,210.582 0,-63.223 -26.52,0 0,57.731 c 0,13.609 -8.73,21.898 -19.9,21.898 -14.18,0 -23.47,-9.726 -23.47,-31.019 l 0,-48.61 -26.78,0 0,57.731 c 0,13.609 -8.69,21.898 -19.85,21.898 -14.18,0 -23.09,-9.726 -23.09,-31.019 l 0,-48.61 -26.75,0 0,101.102 26.75,0 0,-8.289 c 7.07,7.098 17.01,11.34 30.2,11.34 13.56,0 25.91,-5.891 33.24,-16.621 8.29,10.328 20.63,16.621 36.86,16.621 21.08,0 39.31,-16.192 39.31,-40.93" /><path
         id="path4201"
         style="fill:#ffffff;fill-opacity:1;fill-rule:nonzero;stroke:none"
         d="m 2043.53,190.719 -77,0 c 2.66,-14.61 13.18,-23.508 26.36,-23.508 8.11,0 17.01,1.437 24.12,10.117 l 21.25,-10.508 c -9.73,-15.191 -25.53,-22.511 -45.37,-22.511 -29.59,0 -52.88,21.679 -52.88,53.492 0,31.84 23.29,53.699 52.26,53.699 26.97,0 50.26,-20.859 51.26,-51.66 l 0,-9.121 z m -76.17,18.851 48.82,0 c -3.62,12.961 -13.17,18.629 -23.91,18.629 -10.12,0 -21.68,-6.07 -24.91,-18.629" /><path
         id="path4203"
         style="fill:#ffffff;fill-opacity:1;fill-rule:nonzero;stroke:none"
         d="m 2158.84,208.961 0,-61.602 -26.75,0 0,55.93 c 0,14.18 -8.11,23.691 -20.46,23.691 -15.19,0 -25.13,-10.121 -25.13,-34.859 l 0,-44.762 -26.75,0 0,101.129 26.75,0 0,-9.129 c 7.9,7.903 18.45,12.141 31.81,12.141 24.31,0 40.53,-17.41 40.53,-42.539" /><path
         id="path4205"
         style="fill:#ffffff;fill-opacity:1;fill-rule:nonzero;stroke:none"
         d="m 2254.07,151.82 c -10.56,-5.672 -17.84,-7.5 -26.35,-7.5 -23.9,0 -39.7,12.559 -39.7,40.309 l 0,41.973 -21.68,0 0,21.859 21.68,0 0,30.617 26.74,0 0,-30.617 33.03,0 0,-21.859 -33.03,0 0,-39.922 c 0,-12.168 5.89,-17.45 14.8,-17.45 4.66,0 11.55,2.051 16.8,4.879 l 7.71,-22.289" /><path
         id="path4207"
         style="fill:#ffffff;fill-opacity:1;fill-rule:nonzero;stroke:none"
         d="m 2620.45,147.352 6.1719,0 0,735.348 -6.1719,0 0,-735.348 z" /><path
         id="path4209"
         style="fill:#ffffff;fill-opacity:1;fill-rule:nonzero;stroke:none"
         d="m 3091.2,798.59 c 0,-49.039 -35.28,-86.949 -96.28,-86.949 l -57.62,0 0,173.89 57.62,0 c 61,0 96.28,-37.621 96.28,-86.941 m -20.74,0 c 0,38.66 -27,68.527 -75.78,68.527 l -36.88,0 0,-136.777 36.88,0 c 48.78,0 75.78,29.836 75.78,68.25" /><path
         id="path4211"
         style="fill:#ffffff;fill-opacity:1;fill-rule:nonzero;stroke:none"
         d="m 3245.61,771.598 -109.78,0 c 1.8,-28.797 23.88,-45.918 46.71,-45.918 16.08,0 31.16,5.418 41.03,19.711 l 15.83,-8.043 c -11.71,-19.207 -31.95,-29.078 -56.86,-29.078 -34.5,0 -65.91,26.207 -65.91,66.949 0,41.035 30.87,67.492 66.16,67.492 34.53,0 61.53,-25.953 62.82,-63.863 l 0,-7.25 z m -108.99,14.789 88.99,0 c -3.62,25.16 -21.28,38.949 -42.82,38.949 -20.75,0 -42.29,-14.039 -46.17,-38.949" /><path
         id="path4213"
         style="fill:#ffffff;fill-opacity:1;fill-rule:nonzero;stroke:none"
         d="m 3414.04,775.492 c 0,-40.492 -29.83,-67.203 -63.83,-67.203 -21.29,0 -39.45,8.547 -50.87,23.586 l 0,-64.332 -19.74,0 0,172.066 19.74,0 0,-20.539 c 11.42,15.078 29.58,23.625 50.87,23.625 34,0 63.83,-26.711 63.83,-67.203 m -19.21,0 c 0,30.621 -21.29,49.828 -47.74,49.828 -24.16,0 -47.75,-19.207 -47.75,-49.828 0,-30.371 23.59,-49.574 47.75,-49.574 26.45,0 47.74,19.203 47.74,49.574" /><path
         id="path4215"
         style="fill:#ffffff;fill-opacity:1;fill-rule:nonzero;stroke:none"
         d="m 3569.5,839.59 0,-127.945 -19.71,0 0,20 c -11.7,-14.793 -29.62,-23.375 -50.87,-23.375 -33.99,0 -63.86,26.75 -63.86,67.203 0,40.5 29.87,67.242 63.86,67.242 21.25,0 39.17,-8.578 50.87,-23.371 l 0,20.246 19.71,0 z m -19.71,-67.992 0,7.793 c -2.08,28.285 -24.65,45.91 -47.78,45.91 -26.45,0 -47.74,-19.203 -47.74,-49.828 0,-30.332 21.29,-49.535 47.74,-49.535 23.13,0 45.7,17.621 47.78,45.66" /><path
         id="path4217"
         style="fill:#ffffff;fill-opacity:1;fill-rule:nonzero;stroke:none"
         d="m 3695.62,839.852 -1.54,-18.954 c -2.33,0.25 -5.2,0.25 -7.54,0.25 -33.99,0 -51.37,-25.668 -51.37,-60.203 l 0,-49.285 -20,0 0,127.938 20,0 0,-31.66 c 10.38,18.957 27.5,32.957 51.37,32.957 3.13,0 5.46,0 9.08,-1.043" /><path
         id="path4219"
         style="fill:#ffffff;fill-opacity:1;fill-rule:nonzero;stroke:none"
         d="m 3801.51,718.398 c -10.38,-7.257 -19.21,-10.128 -29.58,-10.128 -25.42,0 -42.29,15.043 -42.29,43.332 l 0,71.367 -27.79,0 0,16.621 27.79,0 0,40.746 19.96,0 0,-40.746 45.7,0 0,-16.621 -45.7,0 0,-70.039 c 0,-16.621 9.33,-25.953 23.62,-25.953 7.29,0 15.29,3.086 21.79,7.753 l 6.5,-16.332" /><path
         id="path4221"
         style="fill:#ffffff;fill-opacity:1;fill-rule:nonzero;stroke:none"
         d="m 4029.9,794.438 0,-82.786 -19.74,0 0,79.411 c 0,20.246 -13.75,33.492 -32.96,33.492 -23.63,0 -39.16,-17.41 -39.16,-47.496 l 0,-65.407 -19.75,0 0,79.411 c 0,20.246 -13.75,33.492 -32.7,33.492 -23.59,0 -38.92,-17.41 -38.92,-47.496 l 0,-65.407 -19.71,0 0,127.946 19.71,0 0,-19.207 c 9.08,13.75 23.62,22.328 43.61,22.328 19.72,0 36.05,-9.617 43.59,-26.239 9.87,16.118 26.45,26.239 48.28,26.239 27,0 47.75,-19.203 47.75,-48.281" /><path
         id="path4223"
         style="fill:#ffffff;fill-opacity:1;fill-rule:nonzero;stroke:none"
         d="m 4189.76,771.598 -109.77,0 c 1.83,-28.797 23.87,-45.918 46.7,-45.918 16.08,0 31.16,5.418 41.03,19.711 l 15.83,-8.043 c -11.7,-19.207 -31.95,-29.078 -56.86,-29.078 -34.49,0 -65.91,26.207 -65.91,66.949 0,41.035 30.87,67.492 66.16,67.492 34.53,0 61.54,-25.953 62.82,-63.863 l 0,-7.25 z m -108.98,14.789 88.98,0 c -3.62,25.16 -21.27,38.949 -42.82,38.949 -20.75,0 -42.28,-14.039 -46.16,-38.949" /><path
         id="path4225"
         style="fill:#ffffff;fill-opacity:1;fill-rule:nonzero;stroke:none"
         d="m 4343.14,788.203 0,-76.574 -19.71,0 0,72.949 c 0,23.871 -14.29,39.957 -35.58,39.957 -26.71,0 -44.36,-18.164 -44.36,-51.371 l 0,-61.535 -19.71,0 0,127.945 19.71,0 0,-21 c 10.37,15.293 26.99,24.125 48.28,24.125 30.87,0 51.37,-22.043 51.37,-54.496" /><path
         id="path4227"
         style="fill:#ffffff;fill-opacity:1;fill-rule:nonzero;stroke:none"
         d="m 4462.52,718.398 c -10.37,-7.257 -19.21,-10.128 -29.58,-10.128 -25.45,0 -42.29,15.043 -42.29,43.332 l 0,71.367 -27.79,0 0,16.621 27.79,0 0,40.746 19.96,0 0,-40.746 45.7,0 0,-16.621 -45.7,0 0,-70.039 c 0,-16.621 9.33,-25.953 23.62,-25.953 7.29,0 15.29,3.086 21.79,7.753 l 6.5,-16.332" /><path
         id="path4229"
         style="fill:#ffffff;fill-opacity:1;fill-rule:nonzero;stroke:none"
         d="m 3056.7,500.945 c 0,-38.734 -29.76,-66.41 -66.95,-66.41 -37.7,0 -67.17,27.676 -67.17,66.41 0,38.739 29.47,65.91 67.17,65.91 37.19,0 66.95,-27.171 66.95,-65.91 m -19.24,0 c 0,28.969 -21.8,48.715 -47.71,48.715 -26.14,0 -48.22,-19.746 -48.22,-48.715 0,-29.222 22.08,-49.254 48.22,-49.254 25.91,0 47.71,20.032 47.71,49.254" /><path
         id="path4231"
         style="fill:#ffffff;fill-opacity:1;fill-rule:nonzero;stroke:none"
         d="m 3112.86,564.031 41.53,0 0,-16.398 -41.53,0 0,-110.035 -19.49,0 0,110.035 -26.42,0 0,16.398 26.42,0 0,18.742 c 0,26.633 16.94,43.832 43.37,43.832 7.43,0 14.31,-1.542 20.5,-4.593 l -4.89,-15.907 c -4.6,1.797 -9.72,2.805 -14.36,2.805 -15.36,0 -25.13,-9.98 -25.13,-26.137 l 0,-18.742" /><path
         id="path4233"
         style="fill:#ffffff;fill-opacity:1;fill-rule:nonzero;stroke:none"
         d="m 3388.3,609.43 0,-171.813 -20.25,0 0,77.438 -103.1,0 0,-77.438 -20.28,0 0,171.813 20.28,0 0,-76.18 103.1,0 0,76.18 20.25,0" /><path
         id="path4235"
         style="fill:#ffffff;fill-opacity:1;fill-rule:nonzero;stroke:none"
         d="m 3549.35,496.84 -108.48,0 c 1.8,-28.469 23.58,-45.375 46.17,-45.375 15.9,0 30.76,5.387 40.53,19.492 l 15.64,-7.969 c -11.55,-18.992 -31.55,-28.722 -56.17,-28.722 -34.11,0 -65.17,25.882 -65.17,66.164 0,40.531 30.56,66.699 65.41,66.699 34.11,0 60.79,-25.668 62.07,-63.109 l 0,-7.18 z m -107.69,14.609 87.95,0 c -3.59,24.879 -21.04,38.489 -42.33,38.489 -20.52,0 -41.78,-13.86 -45.62,-38.489" /><path
         id="path4237"
         style="fill:#ffffff;fill-opacity:1;fill-rule:nonzero;stroke:none"
         d="m 3702.98,564.031 0,-126.433 -19.49,0 0,19.746 c -11.57,-14.61 -29.22,-23.082 -50.27,-23.082 -33.59,0 -63.1,26.422 -63.1,66.445 0,39.996 29.51,66.414 63.1,66.414 21.05,0 38.7,-8.469 50.27,-23.086 l 0,19.996 19.49,0 z m -19.49,-67.203 0,7.723 c -2.06,27.929 -24.38,45.375 -47.21,45.375 -26.13,0 -47.17,-18.953 -47.17,-49.219 0,-30.012 21.04,-49 47.17,-49 22.83,0 45.15,17.445 47.21,45.121" /><path
         id="path4239"
         style="fill:#ffffff;fill-opacity:1;fill-rule:nonzero;stroke:none"
         d="m 3748.09,437.625 19.5,0 0,184.629 -19.5,0 0,-184.629 z" /><path
         id="path4241"
         style="fill:#ffffff;fill-opacity:1;fill-rule:nonzero;stroke:none"
         d="m 3888.65,444.273 c -10.26,-7.179 -18.98,-10.015 -29.26,-10.015 -25.08,0 -41.78,14.894 -41.78,42.828 l 0,70.539 -27.43,0 0,16.406 27.43,0 0,40.282 19.74,0 0,-40.282 45.17,0 0,-16.406 -45.17,0 0,-69.246 c 0,-16.406 9.23,-25.637 23.34,-25.637 7.18,0 15.15,3.055 21.54,7.688 l 6.42,-16.157" /><path
         id="path4243"
         style="fill:#ffffff;fill-opacity:1;fill-rule:nonzero;stroke:none"
         d="m 4031.76,513.25 0,-75.641 -19.5,0 0,72.051 c 0,23.586 -14.1,39.488 -35.14,39.488 -26.39,0 -43.83,-17.949 -43.83,-50.761 l 0,-60.778 -19.49,0 0,184.629 19.49,0 0,-78.972 c 10.26,15.144 26.67,23.832 47.71,23.832 30.51,0 50.76,-21.785 50.76,-53.848" /></g></g></svg>
